<?xml version="1.0" encoding="UTF-8" standalone="no"?>
<!DOCTYPE svg PUBLIC "-//W3C//DTD SVG 1.1//EN"
 "http://www.w3.org/Graphics/SVG/1.1/DTD/svg11.dtd">
<!-- Generated by graphviz version 2.47.0 (20210316.0004)
 -->
<!-- Title: dependencies Pages: 1 -->
<svg width="950pt" height="284pt"
 viewBox="0.00 0.00 950.00 284.00" xmlns="http://www.w3.org/2000/svg" xmlns:xlink="http://www.w3.org/1999/xlink">
<g id="graph0" class="graph" transform="scale(1 1) rotate(0) translate(4 280)">
<title>dependencies</title>
<polygon fill="white" stroke="transparent" points="-4,4 -4,-280 946,-280 946,4 -4,4"/>
<text text-anchor="start" x="450.01" y="-42.4" font-family="Times-12" font-weight="bold" font-size="14.00">Legend</text>
<polygon fill="#ffffb3" stroke="transparent" points="237,-10 237,-30 257,-30 257,-10 237,-10"/>
<text text-anchor="start" x="260.63" y="-15.4" font-family="Times-12" font-size="14.00"> &#160;Declarations</text>
<polygon fill="#8dd3c7" stroke="transparent" points="350,-10 350,-30 370,-30 370,-10 350,-10"/>
<text text-anchor="start" x="373.73" y="-15.4" font-family="Times-12" font-size="14.00"> &#160;Module</text>
<polygon fill="#80b1d3" stroke="transparent" points="436,-10 436,-30 456,-30 456,-10 436,-10"/>
<text text-anchor="start" x="459.78" y="-15.4" font-family="Times-12" font-size="14.00"> &#160;Bootstrap</text>
<polygon fill="#fdb462" stroke="transparent" points="533,-10 533,-30 553,-30 553,-10 533,-10"/>
<text text-anchor="start" x="556.67" y="-15.4" font-family="Times-12" font-size="14.00"> &#160;Providers</text>
<polygon fill="#fb8072" stroke="transparent" points="629,-10 629,-30 649,-30 649,-10 629,-10"/>
<text text-anchor="start" x="652.73" y="-15.4" font-family="Times-12" font-size="14.00"> &#160;Exports</text>
<g id="clust1" class="cluster">
<title>cluster_AppModule</title>
<polygon fill="none" stroke="black" stroke-dasharray="1,5" points="8,-70 8,-268 934,-268 934,-70 8,-70"/>
</g>
<g id="clust8" class="cluster">
<title>cluster_AppModule_imports</title>
<polygon fill="none" stroke="black" points="782,-78 782,-130 926,-130 926,-78 782,-78"/>
</g>
<g id="clust10" class="cluster">
<title>cluster_AppModule_bootstrap</title>
<polygon fill="none" stroke="black" points="444,-208 444,-260 568,-260 568,-208 444,-208"/>
</g>
<g id="clust2" class="cluster">
<title>cluster_AppModule_declarations</title>
<polygon fill="none" stroke="black" points="16,-78 16,-130 774,-130 774,-78 16,-78"/>
</g>
<!-- AppComponent -->
<g id="node1" class="node">
<title>AppComponent</title>
<polygon fill="#ffffb3" stroke="black" points="765.94,-122 660.06,-122 660.06,-86 765.94,-86 765.94,-122"/>
<text text-anchor="middle" x="713" y="-99.8" font-family="Times,serif" font-size="14.00">AppComponent</text>
</g>
<!-- AppModule -->
<g id="node6" class="node">
<title>AppModule</title>
<polygon fill="#8dd3c7" stroke="black" points="547.66,-187 544.66,-191 523.66,-191 520.66,-187 464.34,-187 464.34,-151 547.66,-151 547.66,-187"/>
<text text-anchor="middle" x="506" y="-164.8" font-family="Times,serif" font-size="14.00">AppModule</text>
</g>
<!-- AppComponent&#45;&gt;AppModule -->
<g id="edge1" class="edge">
<title>AppComponent&#45;&gt;AppModule</title>
<path fill="none" stroke="black" d="M713,-122.02C713,-139.37 713,-163 713,-163 713,-163 557.89,-163 557.89,-163"/>
<polygon fill="black" stroke="black" points="557.89,-159.5 547.89,-163 557.89,-166.5 557.89,-159.5"/>
</g>
<!-- AyudaComponent -->
<g id="node2" class="node">
<title>AyudaComponent</title>
<polygon fill="#ffffb3" stroke="black" points="642.15,-122 523.85,-122 523.85,-86 642.15,-86 642.15,-122"/>
<text text-anchor="middle" x="583" y="-99.8" font-family="Times,serif" font-size="14.00">AyudaComponent</text>
</g>
<!-- AyudaComponent&#45;&gt;AppModule -->
<g id="edge2" class="edge">
<title>AyudaComponent&#45;&gt;AppModule</title>
<path fill="none" stroke="black" d="M535.75,-122.11C535.75,-122.11 535.75,-140.99 535.75,-140.99"/>
<polygon fill="black" stroke="black" points="532.25,-140.99 535.75,-150.99 539.25,-140.99 532.25,-140.99"/>
</g>
<!-- InformacionComponent -->
<g id="node3" class="node">
<title>InformacionComponent</title>
<polygon fill="#ffffb3" stroke="black" points="505.03,-122 354.97,-122 354.97,-86 505.03,-86 505.03,-122"/>
<text text-anchor="middle" x="430" y="-99.8" font-family="Times,serif" font-size="14.00">InformacionComponent</text>
</g>
<!-- InformacionComponent&#45;&gt;AppModule -->
<g id="edge3" class="edge">
<title>InformacionComponent&#45;&gt;AppModule</title>
<path fill="none" stroke="black" d="M484.72,-122.11C484.72,-122.11 484.72,-140.99 484.72,-140.99"/>
<polygon fill="black" stroke="black" points="481.22,-140.99 484.72,-150.99 488.22,-140.99 481.22,-140.99"/>
</g>
<!-- MainComponent -->
<g id="node4" class="node">
<title>MainComponent</title>
<polygon fill="#ffffb3" stroke="black" points="336.38,-122 225.62,-122 225.62,-86 336.38,-86 336.38,-122"/>
<text text-anchor="middle" x="281" y="-99.8" font-family="Times,serif" font-size="14.00">MainComponent</text>
</g>
<!-- MainComponent&#45;&gt;AppModule -->
<g id="edge4" class="edge">
<title>MainComponent&#45;&gt;AppModule</title>
<path fill="none" stroke="black" d="M281,-122.02C281,-139.37 281,-163 281,-163 281,-163 454.21,-163 454.21,-163"/>
<polygon fill="black" stroke="black" points="454.21,-166.5 464.21,-163 454.21,-159.5 454.21,-166.5"/>
</g>
<!-- PaneldermatologoComponent -->
<g id="node5" class="node">
<title>PaneldermatologoComponent</title>
<polygon fill="#ffffb3" stroke="black" points="207.7,-122 24.3,-122 24.3,-86 207.7,-86 207.7,-122"/>
<text text-anchor="middle" x="116" y="-99.8" font-family="Times,serif" font-size="14.00">PaneldermatologoComponent</text>
</g>
<!-- PaneldermatologoComponent&#45;&gt;AppModule -->
<g id="edge5" class="edge">
<title>PaneldermatologoComponent&#45;&gt;AppModule</title>
<path fill="none" stroke="black" d="M116,-122.28C116,-143.32 116,-175 116,-175 116,-175 454.26,-175 454.26,-175"/>
<polygon fill="black" stroke="black" points="454.26,-178.5 464.26,-175 454.26,-171.5 454.26,-178.5"/>
</g>
<!-- AppComponent  -->
<g id="node8" class="node">
<title>AppComponent </title>
<polygon fill="#80b1d3" stroke="black" points="560.44,-252 451.56,-252 451.56,-216 560.44,-216 560.44,-252"/>
<text text-anchor="middle" x="506" y="-229.8" font-family="Times,serif" font-size="14.00">AppComponent </text>
</g>
<!-- AppModule&#45;&gt;AppComponent  -->
<g id="edge7" class="edge">
<title>AppModule&#45;&gt;AppComponent </title>
<path fill="none" stroke="black" stroke-dasharray="1,5" d="M506,-187.11C506,-187.11 506,-205.99 506,-205.99"/>
<polygon fill="black" stroke="black" points="502.5,-205.99 506,-215.99 509.5,-205.99 502.5,-205.99"/>
</g>
<!-- AppRoutingModule -->
<g id="node7" class="node">
<title>AppRoutingModule</title>
<polygon fill="#8dd3c7" stroke="black" points="918.27,-122 915.27,-126 894.27,-126 891.27,-122 789.73,-122 789.73,-86 918.27,-86 918.27,-122"/>
<text text-anchor="middle" x="854" y="-99.8" font-family="Times,serif" font-size="14.00">AppRoutingModule</text>
</g>
<!-- AppRoutingModule&#45;&gt;AppModule -->
<g id="edge6" class="edge">
<title>AppRoutingModule&#45;&gt;AppModule</title>
<path fill="none" stroke="black" d="M854,-122.28C854,-143.32 854,-175 854,-175 854,-175 557.98,-175 557.98,-175"/>
<polygon fill="black" stroke="black" points="557.98,-171.5 547.98,-175 557.98,-178.5 557.98,-171.5"/>
</g>
</g>
</svg>
