<?xml version="1.0" encoding="UTF-8" standalone="no"?>
<!DOCTYPE svg PUBLIC "-//W3C//DTD SVG 1.1//EN"
 "http://www.w3.org/Graphics/SVG/1.1/DTD/svg11.dtd">
<!-- Generated by graphviz version 2.47.0 (20210316.0004)
 -->
<!-- Title: dependencies Pages: 1 -->
<svg width="950pt" height="284pt"
 viewBox="0.00 0.00 950.00 284.00" xmlns="http://www.w3.org/2000/svg" xmlns:xlink="http://www.w3.org/1999/xlink">
<g id="graph0" class="graph" transform="scale(1 1) rotate(0) translate(4 280)">
<title>dependencies</title>
<polygon fill="white" stroke="transparent" points="-4,4 -4,-280 946,-280 946,4 -4,4"/>
<text text-anchor="start" x="450.01" y="-42.4" font-family="Times-12" font-weight="bold" font-size="14.00">Legend</text>
<polygon fill="#ffffb3" stroke="transparent" points="237,-10 237,-30 257,-30 257,-10 237,-10"/>
<text text-anchor="start" x="260.63" y="-15.4" font-family="Times-12" font-size="14.00"> &#160;Declarations</text>
<polygon fill="#8dd3c7" stroke="transparent" points="350,-10 350,-30 370,-30 370,-10 350,-10"/>
<text text-anchor="start" x="373.73" y="-15.4" font-family="Times-12" font-size="14.00"> &#160;Module</text>
<polygon fill="#80b1d3" stroke="transparent" points="436,-10 436,-30 456,-30 456,-10 436,-10"/>
<text text-anchor="start" x="459.78" y="-15.4" font-family="Times-12" font-size="14.00"> &#160;Bootstrap</text>
<polygon fill="#fdb462" stroke="transparent" points="533,-10 533,-30 553,-30 553,-10 533,-10"/>
<text text-anchor="start" x="556.67" y="-15.4" font-family="Times-12" font-size="14.00"> &#160;Providers</text>
<polygon fill="#fb8072" stroke="transparent" points="629,-10 629,-30 649,-30 649,-10 629,-10"/>
<text text-anchor="start" x="652.73" y="-15.4" font-family="Times-12" font-size="14.00"> &#160;Exports</text>
<g id="clust1" class="cluster">
<title>cluster_AppModule</title>
<polygon fill="none" stroke="black" stroke-dasharray="1,5" points="8,-70 8,-268 934,-268 934,-70 8,-70"/>
</g>
<g id="clust2" class="cluster">
<title>cluster_AppModule_declarations</title>
<polygon fill="none" stroke="black" points="168,-78 168,-130 926,-130 926,-78 168,-78"/>
</g>
<g id="clust8" class="cluster">
<title>cluster_AppModule_imports</title>
<polygon fill="none" stroke="black" points="16,-78 16,-130 160,-130 160,-78 16,-78"/>
</g>
<g id="clust10" class="cluster">
<title>cluster_AppModule_bootstrap</title>
<polygon fill="none" stroke="black" points="445,-208 445,-260 569,-260 569,-208 445,-208"/>
</g>
<!-- AppComponent -->
<g id="node1" class="node">
<title>AppComponent</title>
<polygon fill="#ffffb3" stroke="black" points="917.94,-122 812.06,-122 812.06,-86 917.94,-86 917.94,-122"/>
<text text-anchor="middle" x="865" y="-99.8" font-family="Times,serif" font-size="14.00">AppComponent</text>
</g>
<!-- AppModule -->
<g id="node6" class="node">
<title>AppModule</title>
<polygon fill="#8dd3c7" stroke="black" points="548.66,-187 545.66,-191 524.66,-191 521.66,-187 465.34,-187 465.34,-151 548.66,-151 548.66,-187"/>
<text text-anchor="middle" x="507" y="-164.8" font-family="Times,serif" font-size="14.00">AppModule</text>
</g>
<!-- AppComponent&#45;&gt;AppModule -->
<g id="edge1" class="edge">
<title>AppComponent&#45;&gt;AppModule</title>
<path fill="none" stroke="black" d="M865,-122.28C865,-143.32 865,-175 865,-175 865,-175 558.77,-175 558.77,-175"/>
<polygon fill="black" stroke="black" points="558.77,-171.5 548.77,-175 558.77,-178.5 558.77,-171.5"/>
</g>
<!-- AyudaComponent -->
<g id="node2" class="node">
<title>AyudaComponent</title>
<polygon fill="#ffffb3" stroke="black" points="794.15,-122 675.85,-122 675.85,-86 794.15,-86 794.15,-122"/>
<text text-anchor="middle" x="735" y="-99.8" font-family="Times,serif" font-size="14.00">AyudaComponent</text>
</g>
<!-- AyudaComponent&#45;&gt;AppModule -->
<g id="edge2" class="edge">
<title>AyudaComponent&#45;&gt;AppModule</title>
<path fill="none" stroke="black" d="M735,-122.02C735,-139.37 735,-163 735,-163 735,-163 558.82,-163 558.82,-163"/>
<polygon fill="black" stroke="black" points="558.82,-159.5 548.82,-163 558.82,-166.5 558.82,-159.5"/>
</g>
<!-- InformacionComponent -->
<g id="node3" class="node">
<title>InformacionComponent</title>
<polygon fill="#ffffb3" stroke="black" points="657.03,-122 506.97,-122 506.97,-86 657.03,-86 657.03,-122"/>
<text text-anchor="middle" x="582" y="-99.8" font-family="Times,serif" font-size="14.00">InformacionComponent</text>
</g>
<!-- InformacionComponent&#45;&gt;AppModule -->
<g id="edge3" class="edge">
<title>InformacionComponent&#45;&gt;AppModule</title>
<path fill="none" stroke="black" d="M527.78,-122.11C527.78,-122.11 527.78,-140.99 527.78,-140.99"/>
<polygon fill="black" stroke="black" points="524.28,-140.99 527.78,-150.99 531.28,-140.99 524.28,-140.99"/>
</g>
<!-- MainComponent -->
<g id="node4" class="node">
<title>MainComponent</title>
<polygon fill="#ffffb3" stroke="black" points="488.38,-122 377.62,-122 377.62,-86 488.38,-86 488.38,-122"/>
<text text-anchor="middle" x="433" y="-99.8" font-family="Times,serif" font-size="14.00">MainComponent</text>
</g>
<!-- MainComponent&#45;&gt;AppModule -->
<g id="edge4" class="edge">
<title>MainComponent&#45;&gt;AppModule</title>
<path fill="none" stroke="black" d="M476.81,-122.11C476.81,-122.11 476.81,-140.99 476.81,-140.99"/>
<polygon fill="black" stroke="black" points="473.31,-140.99 476.81,-150.99 480.31,-140.99 473.31,-140.99"/>
</g>
<!-- PaneldermatologoComponent -->
<g id="node5" class="node">
<title>PaneldermatologoComponent</title>
<polygon fill="#ffffb3" stroke="black" points="359.7,-122 176.3,-122 176.3,-86 359.7,-86 359.7,-122"/>
<text text-anchor="middle" x="268" y="-99.8" font-family="Times,serif" font-size="14.00">PaneldermatologoComponent</text>
</g>
<!-- PaneldermatologoComponent&#45;&gt;AppModule -->
<g id="edge5" class="edge">
<title>PaneldermatologoComponent&#45;&gt;AppModule</title>
<path fill="none" stroke="black" d="M268,-122.02C268,-139.37 268,-163 268,-163 268,-163 455.1,-163 455.1,-163"/>
<polygon fill="black" stroke="black" points="455.1,-166.5 465.1,-163 455.1,-159.5 455.1,-166.5"/>
</g>
<!-- AppComponent  -->
<g id="node8" class="node">
<title>AppComponent </title>
<polygon fill="#80b1d3" stroke="black" points="561.44,-252 452.56,-252 452.56,-216 561.44,-216 561.44,-252"/>
<text text-anchor="middle" x="507" y="-229.8" font-family="Times,serif" font-size="14.00">AppComponent </text>
</g>
<!-- AppModule&#45;&gt;AppComponent  -->
<g id="edge7" class="edge">
<title>AppModule&#45;&gt;AppComponent </title>
<path fill="none" stroke="black" stroke-dasharray="1,5" d="M507,-187.11C507,-187.11 507,-205.99 507,-205.99"/>
<polygon fill="black" stroke="black" points="503.5,-205.99 507,-215.99 510.5,-205.99 503.5,-205.99"/>
</g>
<!-- AppRoutingModule -->
<g id="node7" class="node">
<title>AppRoutingModule</title>
<polygon fill="#8dd3c7" stroke="black" points="152.27,-122 149.27,-126 128.27,-126 125.27,-122 23.73,-122 23.73,-86 152.27,-86 152.27,-122"/>
<text text-anchor="middle" x="88" y="-99.8" font-family="Times,serif" font-size="14.00">AppRoutingModule</text>
</g>
<!-- AppRoutingModule&#45;&gt;AppModule -->
<g id="edge6" class="edge">
<title>AppRoutingModule&#45;&gt;AppModule</title>
<path fill="none" stroke="black" d="M88,-122.28C88,-143.32 88,-175 88,-175 88,-175 455.29,-175 455.29,-175"/>
<polygon fill="black" stroke="black" points="455.29,-178.5 465.29,-175 455.29,-171.5 455.29,-178.5"/>
</g>
</g>
</svg>
